<?xml version="1.0" encoding="utf-8"?>
<!-- Generator: Adobe Illustrator 22.0.1, SVG Export Plug-In . SVG Version: 6.00 Build 0)  -->
<svg version="1.1" xmlns="http://www.w3.org/2000/svg" xmlns:xlink="http://www.w3.org/1999/xlink" x="0px" y="0px"
	 viewBox="0 0 503 168" style="enable-background:new 0 0 503 168;" xml:space="preserve">
<style type="text/css">
	.st0{display:none;}
	.st1{display:inline;}
	.st2{fill:#2B1251;}
	.st3{fill:#FFFFFF;}
	.st4{fill:#ED9621;}
</style>
<g id="katman_1" class="st0">
	<g class="st1">
		<path class="st2" d="M190.8,49.7L190.8,49.7c-2.7,0-5.1,1.4-6.5,3.7L161.5,92c-2.9,4.9-10,4.9-13,0l-23-38.7
			c-1.4-2.3-3.8-3.7-6.5-3.7c-5.3,0-9,5.4-7,10.3l35.3,89.2c1.1,2.9,4.5,4.8,7.6,4.8c3.1,0,6.5-2,7.6-4.8L197.8,60
			C199.7,55,196.1,49.7,190.8,49.7z"/>
		<path class="st2" d="M278.5,49.7L278.5,49.7c-4.6,0-8.4,3.8-8.4,8.4v52.5c0,8.3-6.8,15.1-15.1,15.1h-20.1
			c-8.3,0-15.1-6.8-15.1-15.1V58.1c0-4.6-3.8-8.4-8.4-8.4c-4.6,0-8.4,3.8-8.4,8.4v74.5c0,12.3,10.1,22.4,22.4,22.4h39
			c12.3,0,22.4-10.1,22.4-22.4V58.1C286.9,53.4,283.1,49.7,278.5,49.7z"/>
		<path class="st2" d="M396,48.8h-1.9c-6.6,0-13,1.5-18.6,4.1c-2.8,1.3-6.2,1.3-9,0c-5.7-2.6-12-4.1-18.6-4.1H346
			c-26.5,0-48.2,21.7-48.2,48.2v10.6c0,26.5,21.7,48.2,48.2,48.2h1.9c6.6,0,13-1.5,18.6-4.1c2.8-1.3,6.2-1.3,9,0
			c5.7,2.6,12,4.1,18.6,4.1h1.9c26.5,0,48.2-21.7,48.2-48.2V97C444.2,70.5,422.5,48.8,396,48.8z M424.9,102.3
			c0,20.6-16.9,37.5-37.5,37.5h-0.5c-4.3,0-8.3-0.8-12.1-2.2c-2.4-0.9-5-0.9-7.3,0c-3.8,1.5-7.9,2.3-12.2,2.3h-0.5
			c-20.6,0-37.5-16.9-37.5-37.5v0c0-20.6,16.9-37.5,37.5-37.5h0.5c4.3,0,8.4,0.8,12.2,2.3c2.5,0,4.8,0,7.3,0
			c3.8-1.4,7.8-2.2,12.1-2.2h0.5C408,64.8,424.9,81.7,424.9,102.3L424.9,102.3z"/>
		<path class="st2" d="M495.1,65c3.8,0,6.9-3.1,6.9-6.9v-2.2c0-3.8-3.1-6.9-6.9-6.9H473V4.8c0-2.2-1.8-4-4-4c-6.6,0-12,5.4-12,12V49
			h-5.4c-3.8,0-6.9,3.1-6.9,6.9v2.2c0,3.8,3.1,6.9,6.9,6.9h5.4V122c0,18.6,12.2,33.8,30.8,33.8h2.2c6.6,0,12-5.4,12-12v0
			c0-1.6-1.3-2.9-2.9-2.9h-7.3c-18.6,0-18.8-15.2-18.8-33.8V65H495.1z"/>
		<path class="st2" d="M108.8,91.8c-0.4-2.4-0.9-4.7-1.6-6.8c0,0,0,0,0-0.1c-0.1-0.2-0.1-0.3-0.2-0.5c0-0.1,0-0.1-0.1-0.2
			c-1.3-4-3-8-5.3-11.8c-1.9-3.2-4.1-6-6.5-8.7C78.1,45,49.6,40.3,27.1,53.9C1.3,69.4-7,102.8,8.5,128.5c3.3,5.4,7.4,10.1,12,13.9
			c17.3,14.2,42.3,16.8,62.6,4.6l12.5,20.8c0,0,14.8-39.3,13.7-68.6C109.4,96.8,109.2,94.3,108.8,91.8z M91.8,101.8
			C91,122.1,74,137.9,53.7,137.1c-20.3-0.8-36.1-17.8-35.3-38.1C19.2,78.8,36.2,63,56.5,63.8C76.7,64.5,92.5,81.5,91.8,101.8z"/>
		<circle class="st2" cx="54.9" cy="100.1" r="23.6"/>
		<path class="st2" d="M383.1,77.5h-0.4c-3.2,0-6.2,0.5-9,1.5c-1.9,0-3.6,0-5.5,0c-2.8-1-5.9-1.5-9.1-1.5h-0.4
			c-15.3,0-27.9,11.2-27.9,24.8v0c0,13.6,12.5,24.8,27.9,24.8h0.4c3.2,0,6.2-0.5,9.1-1.5c1.7-0.6,3.7-0.6,5.5,0c2.8,1,5.8,1.5,9,1.5
			h0.4c15.3,0,27.9-11.2,27.9-24.8v0C411,88.7,398.5,77.5,383.1,77.5z"/>
	</g>
</g>
<g id="katman_2">
	<path class="st3" d="M162.5,92l22.8-38.7c1.4-2.3,3.8-3.7,6.5-3.7h0c5.3,0,9,5.3,7,10.3l-35.1,89.2c-1.1,2.9-4.5,4.8-7.6,4.8l0,0
		c-3.1,0-6.4-2-7.6-4.8L113.1,60c-2-4.9,1.7-10.3,7-10.3h0c2.7,0,5.1,1.4,6.5,3.7l23,38.7C152.5,97,159.6,97,162.5,92z"/>
	<path class="st3" d="M271.1,58.1v52.5c0,8.3-6.8,15.1-15.1,15.1h-20.1c-8.3,0-15.1-6.8-15.1-15.1V58.1c0-4.6-3.8-8.4-8.4-8.4h0
		c-4.6,0-8.4,3.8-8.4,8.4v74.5c0,12.3,10.1,22.4,22.4,22.4h39c12.3,0,22.4-10.1,22.4-22.4V58.1c0-4.6-3.8-8.4-8.4-8.4l0,0
		C274.9,49.7,271.1,53.4,271.1,58.1z"/>
	<path class="st3" d="M397,48.8h-1.9c-6.6,0-13,1.5-18.6,4.1c-2.8,1.3-6.2,1.3-9,0c-5.7-2.6-12-4.1-18.6-4.1H347
		c-26.5,0-48.2,21.7-48.2,48.2v10.6c0,26.5,21.7,48.2,48.2,48.2h1.9c6.6,0,13-1.5,18.6-4.1c2.8-1.3,6.2-1.3,9,0
		c5.7,2.6,12,4.1,18.6,4.1h1.9c26.5,0,48.2-21.7,48.2-48.2V97C445.2,70.5,423.5,48.8,397,48.8z M425.9,102.3
		c0,20.6-16.9,37.5-37.5,37.5h-0.5c-4.3,0-8.3-0.8-12.1-2.2c-2.4-0.9-5-0.9-7.3,0c-3.8,1.5-7.9,2.3-12.2,2.3h-0.5
		c-20.6,0-37.5-16.9-37.5-37.5v0c0-20.6,16.9-37.5,37.5-37.5h0.5c4.3,0,8.4,0.8,12.2,2.3c2.5,0,4.8,0,7.3,0
		c3.8-1.4,7.8-2.2,12.1-2.2h0.5C409,64.8,425.9,81.7,425.9,102.3L425.9,102.3z"/>
	<path class="st4" d="M375.7,67.1c3.8-1.4,7.8-2.2,12.1-2.2h0.5c20.6,0,37.5,16.9,37.5,37.5v0c0,20.6-16.9,37.5-37.5,37.5h-0.5
		c-4.3,0-8.3-0.8-12.1-2.2l0.8,14.1c5.7,2.6,12,4.1,18.6,4.1h1.9c26.5,0,48.2-21.7,48.2-48.2V97c0-26.5-21.7-48.2-48.2-48.2h-1.9
		c-6.6,0-13,1.5-18.6,4.1L375.7,67.1z"/>
	<path class="st3" d="M492.8,140.9c-18.6,0-18.8-15.2-18.8-33.8V4.8c0-2.2-1.8-4-4-4h0c-6.6,0-12,5.4-12,12V122
		c0,18.6,12.2,33.8,30.8,33.8h2.2c6.6,0,12-5.4,12-12v0c0-1.6-1.3-2.9-2.9-2.9H492.8z"/>
	<path class="st3" d="M496.1,65h-43.5c-3.8,0-6.9-3.1-6.9-6.9v-2.2c0-3.8,3.1-6.9,6.9-6.9h43.5c3.8,0,6.9,3.1,6.9,6.9v2.2
		C503,61.9,499.9,65,496.1,65z"/>
	<path class="st3" d="M110.4,99.2c-0.1-2.5-0.3-5-0.7-7.5c-0.4-2.4-0.9-4.7-1.6-6.8c0,0,0,0,0-0.1c-0.1-0.2-0.1-0.3-0.2-0.5
		c0-0.1,0-0.1-0.1-0.2c-1.3-4-3-8-5.3-11.8c-1.9-3.2-4.1-6-6.5-8.7C79.1,45,50.6,40.3,28.1,53.9C2.3,69.4-6,102.8,9.5,128.5
		c3.3,5.4,7.4,10.1,12,13.9c17.3,14.2,42.3,16.8,62.6,4.6l12.5,20.8C96.7,167.8,111.5,128.6,110.4,99.2z M92.8,101.8
		C92,122.1,75,137.9,54.7,137.1c-20.3-0.8-36.1-17.8-35.3-38.1C20.2,78.8,37.2,63,57.5,63.8C77.7,64.5,93.5,81.5,92.8,101.8z"/>
	<circle class="st4" cx="55.9" cy="100.1" r="23.6"/>
	<path class="st4" d="M359.9,127.1h0.4c3.2,0,6.2-0.5,9.1-1.5c1.7-0.6,3.7-0.6,5.5,0c2.8,1,5.8,1.5,9,1.5h0.4
		c15.3,0,27.9-11.2,27.9-24.8v0c0-13.6-12.5-24.8-27.9-24.8h-0.4c-3.2,0-6.2,0.5-9,1.5c-1.9,0-3.6,0-5.5,0c-2.8-1-5.9-1.5-9.1-1.5
		h-0.4c-15.3,0-27.9,11.2-27.9,24.8v0C332,116,344.5,127.1,359.9,127.1z"/>
</g>
</svg>
