<?xml version="1.0" encoding="utf-8"?>
<!-- Generator: Adobe Illustrator 22.0.1, SVG Export Plug-In . SVG Version: 6.00 Build 0)  -->
<svg version="1.1" xmlns="http://www.w3.org/2000/svg" xmlns:xlink="http://www.w3.org/1999/xlink" x="0px" y="0px"
	 viewBox="0 0 800 800" style="enable-background:new 0 0 800 800;" xml:space="preserve">
<style type="text/css">
	.st0{display:none;}
	.st1{display:inline;fill:#DBDBDB;}
	.st2{display:inline;fill:#D67000;}
	.st3{display:inline;fill:#D32E2E;}
	.st4{display:inline;fill:#E3EAEF;}
	.st5{fill:#D32E2E;}
	.st6{fill:#E3EAEF;}
	.st7{fill:#EB3C00;}
	.st8{display:inline;}
	.st9{fill:#FFFFFF;}
</style>
<g id="BG" class="st0">
	<circle class="st1" cx="400" cy="400" r="400"/>
</g>
<g id="RULER" class="st0">
	<rect x="365" y="445" class="st2" width="70" height="70"/>
	<rect x="181" y="525" class="st2" width="70" height="70"/>
	<rect x="365" y="285" class="st2" width="70" height="70"/>
	<rect x="295" y="365" class="st2" width="70" height="70"/>
	<rect x="128" y="205" class="st2" width="70" height="70"/>
	<rect x="529" y="205" class="st2" width="70" height="70"/>
	<rect x="365" y="125" class="st2" width="70" height="70"/>
	<rect x="422" y="45" class="st2" width="70" height="70"/>
	<rect x="365" y="605" class="st2" width="70" height="70"/>
	<rect x="365" y="685" class="st2" width="70" height="70"/>
</g>
<g id="LINES" class="st0">
	<path class="st3" d="M45,445h345c24.9,0,45-20.1,45-45v0c0-24.9-20.1-45-45-45H45c-24.9,0-45,20.1-45,45v0C0,424.9,20.1,445,45,445
		z"/>
	<path class="st3" d="M550,445h205c24.9,0,45-20.1,45-45v0c0-24.9-20.1-45-45-45H550c-24.9,0-45,20.1-45,45v0
		C505,424.9,525.1,445,550,445z"/>
	<path class="st3" d="M136,605H83c-24.9,0-45-20.1-45-45v0c0-24.9,20.1-45,45-45h53c24.9,0,45,20.1,45,45v0
		C181,584.9,160.9,605,136,605z"/>
	<path class="st3" d="M717,605H296c-24.9,0-45-20.1-45-45v0c0-24.9,20.1-45,45-45h421c24.9,0,45,20.1,45,45v0
		C762,584.9,741.9,605,717,605z"/>
	<path class="st3" d="M377,125H246c-24.9,0-45-20.1-45-45v0c0-24.9,20.1-45,45-45h131c24.9,0,45,20.1,45,45v0
		C422,104.9,401.9,125,377,125z"/>
	<path class="st3" d="M554,125h-17c-24.9,0-45-20.1-45-45v0c0-24.9,20.1-45,45-45h17c24.9,0,45,20.1,45,45v0
		C599,104.9,578.9,125,554,125z"/>
	<path class="st3" d="M484,285H243c-24.9,0-45-20.1-45-45v0c0-24.9,20.1-45,45-45h241c24.9,0,45,20.1,45,45v0
		C529,264.9,508.9,285,484,285z"/>
	<path class="st3" d="M717,285h-73c-24.9,0-45-20.1-45-45v0c0-24.9,20.1-45,45-45h73c24.9,0,45,20.1,45,45v0
		C762,264.9,741.9,285,717,285z"/>
	<path class="st3" d="M83,285L83,285c-24.9,0-45-20.1-45-45v0c0-24.9,20.1-45,45-45h0c24.9,0,45,20.1,45,45v0
		C128,264.9,107.9,285,83,285z"/>
	<path class="st3" d="M320,765h-74c-24.9,0-45-20.1-45-45v0c0-24.9,20.1-45,45-45h74c24.9,0,45,20.1,45,45v0
		C365,744.9,344.9,765,320,765z"/>
	<path class="st3" d="M554,765h-74c-24.9,0-45-20.1-45-45v0c0-24.9,20.1-45,45-45h74c24.9,0,45,20.1,45,45v0
		C599,744.9,578.9,765,554,765z"/>
</g>
<g id="ANIMATE">
	<g id="_x31_" class="st0">
		<path class="st4" d="M117.2,180.8l244,244c17.6,17.6,46.1,17.6,63.6,0l0,0c17.6-17.6,17.6-46.1,0-63.6l-244-244
			c-17.6-17.6-46.1-17.6-63.6,0l0,0C99.6,134.7,99.6,163.2,117.2,180.8z"/>
		<path class="st4" d="M474.2,537.9l145,145c17.6,17.6,46.1,17.6,63.6,0l0,0c17.6-17.6,17.6-46.1,0-63.6l-145-145
			c-17.6-17.6-46.1-17.6-63.6,0l0,0C456.7,491.8,456.7,520.3,474.2,537.9z"/>
		<path class="st3" d="M68.4,358.3l-37.5-37.5c-17.6-17.6-17.6-46.1,0-63.6l0,0c17.6-17.6,46.1-17.6,63.6,0l37.5,37.5
			c17.6,17.6,17.6,46.1,0,63.6l0,0C114.4,375.9,85.9,375.9,68.4,358.3z"/>
		<path class="st3" d="M479.2,769.1L181.5,471.4c-17.6-17.6-17.6-46.1,0-63.6l0,0c17.6-17.6,46.1-17.6,63.6,0l297.7,297.7
			c17.6,17.6,17.6,46.1,0,63.6l0,0C525.3,786.7,496.8,786.7,479.2,769.1z"/>
		<path class="st3" d="M578.2,189.3l-92.6-92.6C468,79.1,468,50.6,485.6,33l0,0c17.6-17.6,46.1-17.6,63.6,0l92.6,92.6
			c17.6,17.6,17.6,46.1,0,63.6l0,0C624.3,206.9,595.8,206.9,578.2,189.3z"/>
		<path class="st4" d="M703.3,314.4l-12-12c-17.6-17.6-17.6-46.1,0-63.6l0,0c17.6-17.6,46.1-17.6,63.6,0l12,12
			c17.6,17.6,17.6,46.1,0,63.6l0,0C749.4,332,720.9,332,703.3,314.4z"/>
		<path class="st3" d="M540.7,378.1L370.3,207.7c-17.6-17.6-17.6-46.1,0-63.6l0,0c17.6-17.6,46.1-17.6,63.6,0l170.4,170.4
			c17.6,17.6,17.6,46.1,0,63.6l0,0C586.8,395.7,558.3,395.7,540.7,378.1z"/>
		<path class="st4" d="M705.5,542.8l-51.6-51.6c-17.6-17.6-17.6-46.1,0-63.6l0,0c17.6-17.6,46.1-17.6,63.6,0l51.6,51.6
			c17.6,17.6,17.6,46.1,0,63.6l0,0C751.5,560.4,723,560.4,705.5,542.8z"/>
		<path class="st4" d="M257.2,94.5L257.2,94.5c-17.6-17.6-17.6-46.1,0-63.6l0,0c17.6-17.6,46.1-17.6,63.6,0l0,0
			c17.6,17.6,17.6,46.1,0,63.6l0,0C303.2,112.1,274.7,112.1,257.2,94.5z"/>
		<path class="st4" d="M85.3,601.5L33,549.2c-17.6-17.6-17.6-46.1,0-63.6l0,0c17.6-17.6,46.1-17.6,63.6,0l52.3,52.3
			c17.6,17.6,17.6,46.1,0,63.6l0,0C131.4,619.1,102.9,619.1,85.3,601.5z"/>
		<path class="st4" d="M250.8,767l-52.3-52.3c-17.6-17.6-17.6-46.1,0-63.6l0,0c17.6-17.6,46.1-17.6,63.6,0l52.3,52.3
			c17.6,17.6,17.6,46.1,0,63.6l0,0C296.9,784.6,268.4,784.6,250.8,767z"/>
	</g>
	<g id="_x32_" class="st0">
		<path class="st3" d="M117.2,180.8l244,244c17.6,17.6,46.1,17.6,63.6,0l0,0c17.6-17.6,17.6-46.1,0-63.6l-244-244
			c-17.6-17.6-46.1-17.6-63.6,0l0,0C99.6,134.7,99.6,163.2,117.2,180.8z"/>
		<path class="st3" d="M474.2,537.9l145,145c17.6,17.6,46.1,17.6,63.6,0l0,0c17.6-17.6,17.6-46.1,0-63.6l-145-145
			c-17.6-17.6-46.1-17.6-63.6,0l0,0C456.7,491.8,456.7,520.3,474.2,537.9z"/>
		<path class="st3" d="M68.4,358.3l-37.5-37.5c-17.6-17.6-17.6-46.1,0-63.6l0,0c17.6-17.6,46.1-17.6,63.6,0l37.5,37.5
			c17.6,17.6,17.6,46.1,0,63.6l0,0C114.4,375.9,85.9,375.9,68.4,358.3z"/>
		<path class="st4" d="M479.2,769.1L181.5,471.4c-17.6-17.6-17.6-46.1,0-63.6l0,0c17.6-17.6,46.1-17.6,63.6,0l297.7,297.7
			c17.6,17.6,17.6,46.1,0,63.6l0,0C525.3,786.7,496.8,786.7,479.2,769.1z"/>
		<path class="st4" d="M578.2,189.3l-92.6-92.6C468,79.1,468,50.6,485.6,33l0,0c17.6-17.6,46.1-17.6,63.6,0l92.6,92.6
			c17.6,17.6,17.6,46.1,0,63.6l0,0C624.3,206.9,595.8,206.9,578.2,189.3z"/>
		<path class="st4" d="M703.3,314.4l-12-12c-17.6-17.6-17.6-46.1,0-63.6l0,0c17.6-17.6,46.1-17.6,63.6,0l12,12
			c17.6,17.6,17.6,46.1,0,63.6l0,0C749.4,332,720.9,332,703.3,314.4z"/>
		<path class="st4" d="M540.7,378.1L370.3,207.7c-17.6-17.6-17.6-46.1,0-63.6l0,0c17.6-17.6,46.1-17.6,63.6,0l170.4,170.4
			c17.6,17.6,17.6,46.1,0,63.6l0,0C586.8,395.7,558.3,395.7,540.7,378.1z"/>
		<path class="st3" d="M705.5,542.8l-51.6-51.6c-17.6-17.6-17.6-46.1,0-63.6l0,0c17.6-17.6,46.1-17.6,63.6,0l51.6,51.6
			c17.6,17.6,17.6,46.1,0,63.6l0,0C751.5,560.4,723,560.4,705.5,542.8z"/>
		<path class="st3" d="M257.2,94.5L257.2,94.5c-17.6-17.6-17.6-46.1,0-63.6l0,0c17.6-17.6,46.1-17.6,63.6,0l0,0
			c17.6,17.6,17.6,46.1,0,63.6l0,0C303.2,112.1,274.7,112.1,257.2,94.5z"/>
		<path class="st4" d="M85.3,601.5L33,549.2c-17.6-17.6-17.6-46.1,0-63.6l0,0c17.6-17.6,46.1-17.6,63.6,0l52.3,52.3
			c17.6,17.6,17.6,46.1,0,63.6l0,0C131.4,619.1,102.9,619.1,85.3,601.5z"/>
		<path class="st4" d="M250.8,767l-52.3-52.3c-17.6-17.6-17.6-46.1,0-63.6l0,0c17.6-17.6,46.1-17.6,63.6,0l52.3,52.3
			c17.6,17.6,17.6,46.1,0,63.6l0,0C296.9,784.6,268.4,784.6,250.8,767z"/>
	</g>
	<g id="_x33__1_" class="st0">
		<path class="st4" d="M117.2,180.8l244,244c17.6,17.6,46.1,17.6,63.6,0l0,0c17.6-17.6,17.6-46.1,0-63.6l-244-244
			c-17.6-17.6-46.1-17.6-63.6,0l0,0C99.6,134.7,99.6,163.2,117.2,180.8z"/>
		<path class="st4" d="M474.2,537.9l145,145c17.6,17.6,46.1,17.6,63.6,0l0,0c17.6-17.6,17.6-46.1,0-63.6l-145-145
			c-17.6-17.6-46.1-17.6-63.6,0l0,0C456.7,491.8,456.7,520.3,474.2,537.9z"/>
		<path class="st4" d="M68.4,358.3l-37.5-37.5c-17.6-17.6-17.6-46.1,0-63.6l0,0c17.6-17.6,46.1-17.6,63.6,0l37.5,37.5
			c17.6,17.6,17.6,46.1,0,63.6l0,0C114.4,375.9,85.9,375.9,68.4,358.3z"/>
		<path class="st4" d="M479.2,769.1L181.5,471.4c-17.6-17.6-17.6-46.1,0-63.6l0,0c17.6-17.6,46.1-17.6,63.6,0l297.7,297.7
			c17.6,17.6,17.6,46.1,0,63.6l0,0C525.3,786.7,496.8,786.7,479.2,769.1z"/>
		<path class="st4" d="M578.2,189.3l-92.6-92.6C468,79.1,468,50.6,485.6,33l0,0c17.6-17.6,46.1-17.6,63.6,0l92.6,92.6
			c17.6,17.6,17.6,46.1,0,63.6l0,0C624.3,206.9,595.8,206.9,578.2,189.3z"/>
		<path class="st3" d="M703.3,314.4l-12-12c-17.6-17.6-17.6-46.1,0-63.6l0,0c17.6-17.6,46.1-17.6,63.6,0l12,12
			c17.6,17.6,17.6,46.1,0,63.6l0,0C749.4,332,720.9,332,703.3,314.4z"/>
		<path class="st3" d="M540.7,378.1L370.3,207.7c-17.6-17.6-17.6-46.1,0-63.6l0,0c17.6-17.6,46.1-17.6,63.6,0l170.4,170.4
			c17.6,17.6,17.6,46.1,0,63.6l0,0C586.8,395.7,558.3,395.7,540.7,378.1z"/>
		<path class="st4" d="M705.5,542.8l-51.6-51.6c-17.6-17.6-17.6-46.1,0-63.6l0,0c17.6-17.6,46.1-17.6,63.6,0l51.6,51.6
			c17.6,17.6,17.6,46.1,0,63.6l0,0C751.5,560.4,723,560.4,705.5,542.8z"/>
		<path class="st3" d="M257.2,94.5L257.2,94.5c-17.6-17.6-17.6-46.1,0-63.6l0,0c17.6-17.6,46.1-17.6,63.6,0l0,0
			c17.6,17.6,17.6,46.1,0,63.6l0,0C303.2,112.1,274.7,112.1,257.2,94.5z"/>
		<path class="st3" d="M85.3,601.5L33,549.2c-17.6-17.6-17.6-46.1,0-63.6l0,0c17.6-17.6,46.1-17.6,63.6,0l52.3,52.3
			c17.6,17.6,17.6,46.1,0,63.6l0,0C131.4,619.1,102.9,619.1,85.3,601.5z"/>
		<path class="st3" d="M250.8,767l-52.3-52.3c-17.6-17.6-17.6-46.1,0-63.6l0,0c17.6-17.6,46.1-17.6,63.6,0l52.3,52.3
			c17.6,17.6,17.6,46.1,0,63.6l0,0C296.9,784.6,268.4,784.6,250.8,767z"/>
	</g>
	<g id="_x34_" class="st0">
		<path class="st4" d="M117.2,180.8l244,244c17.6,17.6,46.1,17.6,63.6,0l0,0c17.6-17.6,17.6-46.1,0-63.6l-244-244
			c-17.6-17.6-46.1-17.6-63.6,0l0,0C99.6,134.7,99.6,163.2,117.2,180.8z"/>
		<path class="st4" d="M474.2,537.9l145,145c17.6,17.6,46.1,17.6,63.6,0l0,0c17.6-17.6,17.6-46.1,0-63.6l-145-145
			c-17.6-17.6-46.1-17.6-63.6,0l0,0C456.7,491.8,456.7,520.3,474.2,537.9z"/>
		<path class="st4" d="M68.4,358.3l-37.5-37.5c-17.6-17.6-17.6-46.1,0-63.6l0,0c17.6-17.6,46.1-17.6,63.6,0l37.5,37.5
			c17.6,17.6,17.6,46.1,0,63.6l0,0C114.4,375.9,85.9,375.9,68.4,358.3z"/>
		<path class="st4" d="M479.2,769.1L181.5,471.4c-17.6-17.6-17.6-46.1,0-63.6l0,0c17.6-17.6,46.1-17.6,63.6,0l297.7,297.7
			c17.6,17.6,17.6,46.1,0,63.6l0,0C525.3,786.7,496.8,786.7,479.2,769.1z"/>
		<path class="st4" d="M578.2,189.3l-92.6-92.6C468,79.1,468,50.6,485.6,33l0,0c17.6-17.6,46.1-17.6,63.6,0l92.6,92.6
			c17.6,17.6,17.6,46.1,0,63.6l0,0C624.3,206.9,595.8,206.9,578.2,189.3z"/>
		<path class="st3" d="M703.3,314.4l-12-12c-17.6-17.6-17.6-46.1,0-63.6l0,0c17.6-17.6,46.1-17.6,63.6,0l12,12
			c17.6,17.6,17.6,46.1,0,63.6l0,0C749.4,332,720.9,332,703.3,314.4z"/>
		<path class="st4" d="M540.7,378.1L370.3,207.7c-17.6-17.6-17.6-46.1,0-63.6l0,0c17.6-17.6,46.1-17.6,63.6,0l170.4,170.4
			c17.6,17.6,17.6,46.1,0,63.6l0,0C586.8,395.7,558.3,395.7,540.7,378.1z"/>
		<path class="st4" d="M705.5,542.8l-51.6-51.6c-17.6-17.6-17.6-46.1,0-63.6l0,0c17.6-17.6,46.1-17.6,63.6,0l51.6,51.6
			c17.6,17.6,17.6,46.1,0,63.6l0,0C751.5,560.4,723,560.4,705.5,542.8z"/>
		<path class="st3" d="M257.2,94.5L257.2,94.5c-17.6-17.6-17.6-46.1,0-63.6l0,0c17.6-17.6,46.1-17.6,63.6,0l0,0
			c17.6,17.6,17.6,46.1,0,63.6l0,0C303.2,112.1,274.7,112.1,257.2,94.5z"/>
		<path class="st3" d="M85.3,601.5L33,549.2c-17.6-17.6-17.6-46.1,0-63.6l0,0c17.6-17.6,46.1-17.6,63.6,0l52.3,52.3
			c17.6,17.6,17.6,46.1,0,63.6l0,0C131.4,619.1,102.9,619.1,85.3,601.5z"/>
		<path class="st4" d="M250.8,767l-52.3-52.3c-17.6-17.6-17.6-46.1,0-63.6l0,0c17.6-17.6,46.1-17.6,63.6,0l52.3,52.3
			c17.6,17.6,17.6,46.1,0,63.6l0,0C296.9,784.6,268.4,784.6,250.8,767z"/>
	</g>
	<g id="_x35_" class="st0">
		<path class="st4" d="M117.2,180.8l244,244c17.6,17.6,46.1,17.6,63.6,0l0,0c17.6-17.6,17.6-46.1,0-63.6l-244-244
			c-17.6-17.6-46.1-17.6-63.6,0l0,0C99.6,134.7,99.6,163.2,117.2,180.8z"/>
		<path class="st4" d="M474.2,537.9l145,145c17.6,17.6,46.1,17.6,63.6,0l0,0c17.6-17.6,17.6-46.1,0-63.6l-145-145
			c-17.6-17.6-46.1-17.6-63.6,0l0,0C456.7,491.8,456.7,520.3,474.2,537.9z"/>
		<path class="st4" d="M68.4,358.3l-37.5-37.5c-17.6-17.6-17.6-46.1,0-63.6l0,0c17.6-17.6,46.1-17.6,63.6,0l37.5,37.5
			c17.6,17.6,17.6,46.1,0,63.6l0,0C114.4,375.9,85.9,375.9,68.4,358.3z"/>
		<path class="st4" d="M479.2,769.1L181.5,471.4c-17.6-17.6-17.6-46.1,0-63.6l0,0c17.6-17.6,46.1-17.6,63.6,0l297.7,297.7
			c17.6,17.6,17.6,46.1,0,63.6l0,0C525.3,786.7,496.8,786.7,479.2,769.1z"/>
		<path class="st4" d="M578.2,189.3l-92.6-92.6C468,79.1,468,50.6,485.6,33l0,0c17.6-17.6,46.1-17.6,63.6,0l92.6,92.6
			c17.6,17.6,17.6,46.1,0,63.6l0,0C624.3,206.9,595.8,206.9,578.2,189.3z"/>
		<path class="st3" d="M703.3,314.4l-12-12c-17.6-17.6-17.6-46.1,0-63.6l0,0c17.6-17.6,46.1-17.6,63.6,0l12,12
			c17.6,17.6,17.6,46.1,0,63.6l0,0C749.4,332,720.9,332,703.3,314.4z"/>
		<path class="st4" d="M540.7,378.1L370.3,207.7c-17.6-17.6-17.6-46.1,0-63.6l0,0c17.6-17.6,46.1-17.6,63.6,0l170.4,170.4
			c17.6,17.6,17.6,46.1,0,63.6l0,0C586.8,395.7,558.3,395.7,540.7,378.1z"/>
		<path class="st4" d="M705.5,542.8l-51.6-51.6c-17.6-17.6-17.6-46.1,0-63.6l0,0c17.6-17.6,46.1-17.6,63.6,0l51.6,51.6
			c17.6,17.6,17.6,46.1,0,63.6l0,0C751.5,560.4,723,560.4,705.5,542.8z"/>
		<path class="st4" d="M257.2,94.5L257.2,94.5c-17.6-17.6-17.6-46.1,0-63.6l0,0c17.6-17.6,46.1-17.6,63.6,0l0,0
			c17.6,17.6,17.6,46.1,0,63.6l0,0C303.2,112.1,274.7,112.1,257.2,94.5z"/>
		<path class="st4" d="M85.3,601.5L33,549.2c-17.6-17.6-17.6-46.1,0-63.6l0,0c17.6-17.6,46.1-17.6,63.6,0l52.3,52.3
			c17.6,17.6,17.6,46.1,0,63.6l0,0C131.4,619.1,102.9,619.1,85.3,601.5z"/>
		<path class="st3" d="M250.8,767l-52.3-52.3c-17.6-17.6-17.6-46.1,0-63.6l0,0c17.6-17.6,46.1-17.6,63.6,0l52.3,52.3
			c17.6,17.6,17.6,46.1,0,63.6l0,0C296.9,784.6,268.4,784.6,250.8,767z"/>
	</g>
	<g id="_x36_">
		<path class="st5" d="M117.2,180.8l244,244c17.6,17.6,46.1,17.6,63.6,0l0,0c17.6-17.6,17.6-46.1,0-63.6l-244-244
			c-17.6-17.6-46.1-17.6-63.6,0l0,0C99.6,134.7,99.6,163.2,117.2,180.8z"/>
		<path class="st6" d="M474.2,537.9l145,145c17.6,17.6,46.1,17.6,63.6,0l0,0c17.6-17.6,17.6-46.1,0-63.6l-145-145
			c-17.6-17.6-46.1-17.6-63.6,0l0,0C456.7,491.8,456.7,520.3,474.2,537.9z"/>
		<path class="st6" d="M68.4,358.3l-37.5-37.5c-17.6-17.6-17.6-46.1,0-63.6l0,0c17.6-17.6,46.1-17.6,63.6,0l37.5,37.5
			c17.6,17.6,17.6,46.1,0,63.6l0,0C114.4,375.9,85.9,375.9,68.4,358.3z"/>
		<path class="st6" d="M479.2,769.1L181.5,471.4c-17.6-17.6-17.6-46.1,0-63.6l0,0c17.6-17.6,46.1-17.6,63.6,0l297.7,297.7
			c17.6,17.6,17.6,46.1,0,63.6l0,0C525.3,786.7,496.8,786.7,479.2,769.1z"/>
		<path class="st6" d="M578.2,189.3l-92.6-92.6C468,79.1,468,50.6,485.6,33l0,0c17.6-17.6,46.1-17.6,63.6,0l92.6,92.6
			c17.6,17.6,17.6,46.1,0,63.6l0,0C624.3,206.9,595.8,206.9,578.2,189.3z"/>
		<path class="st6" d="M703.3,314.4l-12-12c-17.6-17.6-17.6-46.1,0-63.6l0,0c17.6-17.6,46.1-17.6,63.6,0l12,12
			c17.6,17.6,17.6,46.1,0,63.6l0,0C749.4,332,720.9,332,703.3,314.4z"/>
		<path class="st6" d="M540.7,378.1L370.3,207.7c-17.6-17.6-17.6-46.1,0-63.6l0,0c17.6-17.6,46.1-17.6,63.6,0l170.4,170.4
			c17.6,17.6,17.6,46.1,0,63.6l0,0C586.8,395.7,558.3,395.7,540.7,378.1z"/>
		<path class="st6" d="M705.5,542.8l-51.6-51.6c-17.6-17.6-17.6-46.1,0-63.6l0,0c17.6-17.6,46.1-17.6,63.6,0l51.6,51.6
			c17.6,17.6,17.6,46.1,0,63.6l0,0C751.5,560.4,723,560.4,705.5,542.8z"/>
		<path class="st6" d="M257.2,94.5L257.2,94.5c-17.6-17.6-17.6-46.1,0-63.6l0,0c17.6-17.6,46.1-17.6,63.6,0l0,0
			c17.6,17.6,17.6,46.1,0,63.6l0,0C303.2,112.1,274.7,112.1,257.2,94.5z"/>
		<path class="st6" d="M85.3,601.5L33,549.2c-17.6-17.6-17.6-46.1,0-63.6l0,0c17.6-17.6,46.1-17.6,63.6,0l52.3,52.3
			c17.6,17.6,17.6,46.1,0,63.6l0,0C131.4,619.1,102.9,619.1,85.3,601.5z"/>
		<path class="st6" d="M250.8,767l-52.3-52.3c-17.6-17.6-17.6-46.1,0-63.6l0,0c17.6-17.6,46.1-17.6,63.6,0l52.3,52.3
			c17.6,17.6,17.6,46.1,0,63.6l0,0C296.9,784.6,268.4,784.6,250.8,767z"/>
	</g>
</g>
<g id="RED">
	<g>
		<path class="st7" d="M117.2,180.8l244,244c17.6,17.6,46.1,17.6,63.6,0l0,0c17.6-17.6,17.6-46.1,0-63.6l-244-244
			c-17.6-17.6-46.1-17.6-63.6,0l0,0C99.6,134.7,99.6,163.2,117.2,180.8z"/>
		<path class="st7" d="M474.2,537.9l145,145c17.6,17.6,46.1,17.6,63.6,0l0,0c17.6-17.6,17.6-46.1,0-63.6l-145-145
			c-17.6-17.6-46.1-17.6-63.6,0l0,0C456.7,491.8,456.7,520.3,474.2,537.9z"/>
		<path class="st7" d="M68.4,358.3l-37.5-37.5c-17.6-17.6-17.6-46.1,0-63.6l0,0c17.6-17.6,46.1-17.6,63.6,0l37.5,37.5
			c17.6,17.6,17.6,46.1,0,63.6l0,0C114.4,375.9,85.9,375.9,68.4,358.3z"/>
		<path class="st7" d="M479.2,769.1L181.5,471.4c-17.6-17.6-17.6-46.1,0-63.6l0,0c17.6-17.6,46.1-17.6,63.6,0l297.7,297.7
			c17.6,17.6,17.6,46.1,0,63.6l0,0C525.3,786.7,496.8,786.7,479.2,769.1z"/>
		<path class="st7" d="M578.2,189.3l-92.6-92.6C468,79.1,468,50.6,485.6,33l0,0c17.6-17.6,46.1-17.6,63.6,0l92.6,92.6
			c17.6,17.6,17.6,46.1,0,63.6l0,0C624.3,206.9,595.8,206.9,578.2,189.3z"/>
		<path class="st7" d="M703.3,314.4l-12-12c-17.6-17.6-17.6-46.1,0-63.6l0,0c17.6-17.6,46.1-17.6,63.6,0l12,12
			c17.6,17.6,17.6,46.1,0,63.6l0,0C749.4,332,720.9,332,703.3,314.4z"/>
		<path class="st7" d="M540.7,378.1L370.3,207.7c-17.6-17.6-17.6-46.1,0-63.6l0,0c17.6-17.6,46.1-17.6,63.6,0l170.4,170.4
			c17.6,17.6,17.6,46.1,0,63.6l0,0C586.8,395.7,558.3,395.7,540.7,378.1z"/>
		<path class="st7" d="M705.5,542.8l-51.6-51.6c-17.6-17.6-17.6-46.1,0-63.6l0,0c17.6-17.6,46.1-17.6,63.6,0l51.6,51.6
			c17.6,17.6,17.6,46.1,0,63.6l0,0C751.5,560.4,723,560.4,705.5,542.8z"/>
		<path class="st7" d="M257.2,94.5L257.2,94.5c-17.6-17.6-17.6-46.1,0-63.6l0,0c17.6-17.6,46.1-17.6,63.6,0l0,0
			c17.6,17.6,17.6,46.1,0,63.6l0,0C303.2,112.1,274.7,112.1,257.2,94.5z"/>
		<path class="st7" d="M85.3,601.5L33,549.2c-17.6-17.6-17.6-46.1,0-63.6l0,0c17.6-17.6,46.1-17.6,63.6,0l52.3,52.3
			c17.6,17.6,17.6,46.1,0,63.6l0,0C131.4,619.1,102.9,619.1,85.3,601.5z"/>
		<path class="st7" d="M250.8,767l-52.3-52.3c-17.6-17.6-17.6-46.1,0-63.6l0,0c17.6-17.6,46.1-17.6,63.6,0l52.3,52.3
			c17.6,17.6,17.6,46.1,0,63.6l0,0C296.9,784.6,268.4,784.6,250.8,767z"/>
	</g>
</g>
<g id="GRI" class="st0">
	<g class="st8">
		<path class="st6" d="M117.2,180.8l244,244c17.6,17.6,46.1,17.6,63.6,0l0,0c17.6-17.6,17.6-46.1,0-63.6l-244-244
			c-17.6-17.6-46.1-17.6-63.6,0l0,0C99.6,134.7,99.6,163.2,117.2,180.8z"/>
		<path class="st6" d="M474.2,537.9l145,145c17.6,17.6,46.1,17.6,63.6,0l0,0c17.6-17.6,17.6-46.1,0-63.6l-145-145
			c-17.6-17.6-46.1-17.6-63.6,0l0,0C456.7,491.8,456.7,520.3,474.2,537.9z"/>
		<path class="st6" d="M68.4,358.3l-37.5-37.5c-17.6-17.6-17.6-46.1,0-63.6l0,0c17.6-17.6,46.1-17.6,63.6,0l37.5,37.5
			c17.6,17.6,17.6,46.1,0,63.6l0,0C114.4,375.9,85.9,375.9,68.4,358.3z"/>
		<path class="st6" d="M479.2,769.1L181.5,471.4c-17.6-17.6-17.6-46.1,0-63.6l0,0c17.6-17.6,46.1-17.6,63.6,0l297.7,297.7
			c17.6,17.6,17.6,46.1,0,63.6l0,0C525.3,786.7,496.8,786.7,479.2,769.1z"/>
		<path class="st6" d="M578.2,189.3l-92.6-92.6C468,79.1,468,50.6,485.6,33l0,0c17.6-17.6,46.1-17.6,63.6,0l92.6,92.6
			c17.6,17.6,17.6,46.1,0,63.6l0,0C624.3,206.9,595.8,206.9,578.2,189.3z"/>
		<path class="st6" d="M703.3,314.4l-12-12c-17.6-17.6-17.6-46.1,0-63.6l0,0c17.6-17.6,46.1-17.6,63.6,0l12,12
			c17.6,17.6,17.6,46.1,0,63.6l0,0C749.4,332,720.9,332,703.3,314.4z"/>
		<path class="st6" d="M540.7,378.1L370.3,207.7c-17.6-17.6-17.6-46.1,0-63.6l0,0c17.6-17.6,46.1-17.6,63.6,0l170.4,170.4
			c17.6,17.6,17.6,46.1,0,63.6l0,0C586.8,395.7,558.3,395.7,540.7,378.1z"/>
		<path class="st6" d="M705.5,542.8l-51.6-51.6c-17.6-17.6-17.6-46.1,0-63.6l0,0c17.6-17.6,46.1-17.6,63.6,0l51.6,51.6
			c17.6,17.6,17.6,46.1,0,63.6l0,0C751.5,560.4,723,560.4,705.5,542.8z"/>
		<path class="st6" d="M257.2,94.5L257.2,94.5c-17.6-17.6-17.6-46.1,0-63.6l0,0c17.6-17.6,46.1-17.6,63.6,0l0,0
			c17.6,17.6,17.6,46.1,0,63.6l0,0C303.2,112.1,274.7,112.1,257.2,94.5z"/>
		<path class="st6" d="M85.3,601.5L33,549.2c-17.6-17.6-17.6-46.1,0-63.6l0,0c17.6-17.6,46.1-17.6,63.6,0l52.3,52.3
			c17.6,17.6,17.6,46.1,0,63.6l0,0C131.4,619.1,102.9,619.1,85.3,601.5z"/>
		<path class="st6" d="M250.8,767l-52.3-52.3c-17.6-17.6-17.6-46.1,0-63.6l0,0c17.6-17.6,46.1-17.6,63.6,0l52.3,52.3
			c17.6,17.6,17.6,46.1,0,63.6l0,0C296.9,784.6,268.4,784.6,250.8,767z"/>
	</g>
</g>
<g id="WHITE" class="st0">
	<g class="st8">
		<path class="st9" d="M117.2,180.8l244,244c17.6,17.6,46.1,17.6,63.6,0l0,0c17.6-17.6,17.6-46.1,0-63.6l-244-244
			c-17.6-17.6-46.1-17.6-63.6,0l0,0C99.6,134.7,99.6,163.2,117.2,180.8z"/>
		<path class="st9" d="M474.2,537.9l145,145c17.6,17.6,46.1,17.6,63.6,0l0,0c17.6-17.6,17.6-46.1,0-63.6l-145-145
			c-17.6-17.6-46.1-17.6-63.6,0l0,0C456.7,491.8,456.7,520.3,474.2,537.9z"/>
		<path class="st9" d="M68.4,358.3l-37.5-37.5c-17.6-17.6-17.6-46.1,0-63.6l0,0c17.6-17.6,46.1-17.6,63.6,0l37.5,37.5
			c17.6,17.6,17.6,46.1,0,63.6l0,0C114.4,375.9,85.9,375.9,68.4,358.3z"/>
		<path class="st9" d="M479.2,769.1L181.5,471.4c-17.6-17.6-17.6-46.1,0-63.6l0,0c17.6-17.6,46.1-17.6,63.6,0l297.7,297.7
			c17.6,17.6,17.6,46.1,0,63.6l0,0C525.3,786.7,496.8,786.7,479.2,769.1z"/>
		<path class="st9" d="M578.2,189.3l-92.6-92.6C468,79.1,468,50.6,485.6,33l0,0c17.6-17.6,46.1-17.6,63.6,0l92.6,92.6
			c17.6,17.6,17.6,46.1,0,63.6l0,0C624.3,206.9,595.8,206.9,578.2,189.3z"/>
		<path class="st9" d="M703.3,314.4l-12-12c-17.6-17.6-17.6-46.1,0-63.6l0,0c17.6-17.6,46.1-17.6,63.6,0l12,12
			c17.6,17.6,17.6,46.1,0,63.6l0,0C749.4,332,720.9,332,703.3,314.4z"/>
		<path class="st9" d="M540.7,378.1L370.3,207.7c-17.6-17.6-17.6-46.1,0-63.6l0,0c17.6-17.6,46.1-17.6,63.6,0l170.4,170.4
			c17.6,17.6,17.6,46.1,0,63.6l0,0C586.8,395.7,558.3,395.7,540.7,378.1z"/>
		<path class="st9" d="M705.5,542.8l-51.6-51.6c-17.6-17.6-17.6-46.1,0-63.6l0,0c17.6-17.6,46.1-17.6,63.6,0l51.6,51.6
			c17.6,17.6,17.6,46.1,0,63.6l0,0C751.5,560.4,723,560.4,705.5,542.8z"/>
		<path class="st9" d="M257.2,94.5L257.2,94.5c-17.6-17.6-17.6-46.1,0-63.6l0,0c17.6-17.6,46.1-17.6,63.6,0l0,0
			c17.6,17.6,17.6,46.1,0,63.6l0,0C303.2,112.1,274.7,112.1,257.2,94.5z"/>
		<path class="st9" d="M85.3,601.5L33,549.2c-17.6-17.6-17.6-46.1,0-63.6l0,0c17.6-17.6,46.1-17.6,63.6,0l52.3,52.3
			c17.6,17.6,17.6,46.1,0,63.6l0,0C131.4,619.1,102.9,619.1,85.3,601.5z"/>
		<path class="st9" d="M250.8,767l-52.3-52.3c-17.6-17.6-17.6-46.1,0-63.6l0,0c17.6-17.6,46.1-17.6,63.6,0l52.3,52.3
			c17.6,17.6,17.6,46.1,0,63.6l0,0C296.9,784.6,268.4,784.6,250.8,767z"/>
	</g>
</g>
</svg>
